<svg xmlns="http://www.w3.org/2000/svg" width="436" height="436" viewBox="0 0 436 436" version="1.1">
	<path d="M 199.500 33.597 C 163.099 38.726, 135.608 49.757, 108.284 70.196 C 68.619 99.865, 42.954 143.902, 36.534 193.301 C 27.304 264.321, 58.433 332.767, 118 372.427 C 137.043 385.105, 164.127 396.036, 186.819 400.202 C 196.457 401.971, 202.260 402.343, 220 402.328 C 245.285 402.306, 257.390 400.537, 277.181 393.970 C 347.333 370.694, 396.190 310.446, 404.068 237.500 C 405.500 224.237, 404.752 199.409, 402.517 186.087 C 394.800 140.069, 369.364 98.459, 331.599 70.074 C 308.925 53.032, 283.782 41.755, 255.442 35.915 C 247.710 34.322, 240.720 33.790, 224 33.520 C 212.175 33.330, 201.150 33.364, 199.500 33.597 M 211.917 49.380 C 211.688 49.590, 208.575 50.063, 205 50.433 C 201.425 50.803, 197.503 51.757, 196.285 52.553 C 195.067 53.349, 193.492 53.993, 192.785 53.985 C 191.882 53.974, 191.945 53.682, 193 53 C 194.945 51.743, 193.377 51.744, 188.993 53.004 C 187.072 53.556, 183.492 54.281, 181.037 54.615 C 178.582 54.949, 175.657 55.630, 174.537 56.129 C 173.080 56.778, 173.595 56.871, 176.348 56.454 C 178.941 56.062, 179.982 56.220, 179.539 56.936 C 179.178 57.521, 178.009 58, 176.941 58 C 175.873 58, 175.113 58.337, 175.250 58.750 C 175.388 59.163, 175.050 59.500, 174.500 59.500 C 173.950 59.500, 173.613 59.163, 173.750 58.750 C 173.887 58.337, 173.362 58, 172.582 58 C 171.802 58, 170.339 57.733, 169.332 57.406 C 167.771 56.899, 167.722 56.986, 169 57.992 C 170.250 58.977, 170.125 59.091, 168.250 58.680 C 167.012 58.409, 166 58.595, 166 59.094 C 166 59.592, 165.298 60, 164.441 60 C 163.505 60, 163.171 60.468, 163.605 61.170 C 164.091 61.957, 163.783 62.131, 162.664 61.701 C 161.749 61.350, 161 61.517, 161 62.071 C 161 62.643, 162.949 62.954, 165.499 62.790 C 167.974 62.631, 169.999 62.114, 169.999 61.642 C 170 61.169, 168.762 61.089, 167.250 61.462 C 165.070 62.001, 164.752 61.885, 165.718 60.903 C 166.670 59.934, 167.792 59.921, 170.863 60.841 C 173.023 61.488, 175.491 61.749, 176.347 61.420 C 177.204 61.092, 178.488 61.192, 179.202 61.644 C 179.916 62.096, 182.612 62.342, 185.193 62.192 C 189.064 61.967, 190.079 62.278, 190.983 63.969 C 191.810 65.513, 192.689 65.865, 194.551 65.398 C 196.502 64.908, 196.899 65.101, 196.434 66.312 C 195.631 68.404, 199.733 70.671, 201.357 69.033 C 202.218 68.166, 202.006 68.043, 200.500 68.535 C 199.044 69.011, 198.870 68.924, 199.861 68.217 C 200.609 67.682, 202.110 67.477, 203.195 67.761 C 204.497 68.102, 204.772 68.523, 204.004 68.998 C 202.708 69.798, 207.393 70.958, 212.375 71.070 C 214.535 71.119, 214.971 71.351, 213.787 71.820 C 212.845 72.194, 215.641 72.500, 220 72.500 C 224.359 72.500, 227.155 72.194, 226.213 71.820 C 224.996 71.337, 225.368 71.110, 227.500 71.036 C 229.150 70.979, 232.272 70.094, 234.438 69.070 C 237.915 67.426, 241 67.258, 241 68.714 C 241 68.989, 240.213 68.914, 239.250 68.548 C 237.933 68.046, 237.783 68.167, 238.643 69.033 C 239.505 69.903, 240.317 69.900, 241.953 69.025 C 244.188 67.829, 244.304 65.807, 242.163 65.388 C 241.496 65.257, 241.411 65.379, 241.975 65.658 C 243.235 66.283, 243.332 68, 242.107 68 C 240.209 68, 240.230 65.101, 242.141 63.372 C 243.392 62.240, 244.026 62.051, 243.824 62.871 C 243.646 63.594, 244.316 64.707, 245.313 65.343 C 246.814 66.301, 247.465 66.086, 249.103 64.090 C 250.603 62.261, 251.360 61.960, 252.240 62.840 C 253.746 64.346, 258.363 64.396, 257.436 62.896 C 257.061 62.289, 258.047 62.562, 259.627 63.502 C 261.715 64.744, 261.988 64.786, 260.627 63.655 C 258.821 62.156, 258.842 62.078, 261.210 61.483 C 263.724 60.852, 264.692 58, 262.392 58 C 261.691 58, 260.822 57.521, 260.461 56.936 C 260.019 56.221, 261.065 56.055, 263.652 56.429 C 267.285 56.955, 267.333 56.929, 264.500 55.970 C 262.126 55.166, 247.529 52.001, 246.191 52 C 246.021 52, 246.183 52.487, 246.551 53.083 C 246.919 53.678, 245.886 53.475, 244.255 52.632 C 239.731 50.292, 213.776 47.683, 211.917 49.380 M 267.738 57.692 C 266.769 57.945, 266.231 58.565, 266.544 59.071 C 266.857 59.577, 265.998 60.499, 264.636 61.120 C 261.564 62.520, 262.259 65, 265.724 65 C 267.766 65, 268.133 64.616, 267.694 62.938 C 267.208 61.080, 267.470 60.944, 270.327 61.563 C 272.072 61.942, 273.762 62.662, 274.083 63.164 C 274.423 63.698, 275.880 63.585, 277.583 62.895 L 280.500 61.712 275.061 60.002 C 271.914 59.013, 270.229 58.053, 271.061 57.725 C 272.268 57.249, 272.258 57.164, 271 57.195 C 270.175 57.215, 268.707 57.439, 267.738 57.692 M 270.083 60.359 C 270.313 60.557, 271.850 61.021, 273.500 61.390 C 275.691 61.880, 276.095 61.787, 275 61.046 C 273.650 60.132, 269.080 59.494, 270.083 60.359 M 195.445 63.089 C 195.030 63.760, 195.098 64.062, 195.595 63.759 C 196.093 63.457, 197.080 63.838, 197.789 64.605 C 198.533 65.410, 198.639 66, 198.039 66 C 197.468 66, 197 66.450, 197 67 C 197 68.501, 198.708 68.203, 199.326 66.594 C 200.068 64.660, 196.478 61.418, 195.445 63.089 M 153 67 C 154.958 68.266, 156.282 68.266, 155.500 67 C 155.160 66.450, 154.121 66.007, 153.191 66.015 C 151.734 66.029, 151.707 66.165, 153 67 M 170 67 C 170 67.550, 170.450 68, 171 68 C 171.550 68, 172 67.550, 172 67 C 172 66.450, 171.550 66, 171 66 C 170.450 66, 170 66.450, 170 67 M 284.500 67 C 283.718 68.266, 285.042 68.266, 287 67 C 288.293 66.165, 288.266 66.029, 286.809 66.015 C 285.879 66.007, 284.840 66.450, 284.500 67 M 149 68 C 149.825 68.533, 150.950 68.969, 151.500 68.969 C 152.050 68.969, 151.825 68.533, 151 68 C 150.175 67.467, 149.050 67.031, 148.500 67.031 C 147.950 67.031, 148.175 67.467, 149 68 M 218.813 73.683 C 219.534 73.972, 220.397 73.936, 220.729 73.604 C 221.061 73.272, 220.471 73.036, 219.417 73.079 C 218.252 73.127, 218.015 73.364, 218.813 73.683" stroke="none" fill="black" fill-rule="evenodd"/>
</svg>